<?xml version="1.0" standalone="no"?>
<!DOCTYPE svg PUBLIC "-//W3C//DTD SVG 20010904//EN"
 "http://www.w3.org/TR/2001/REC-SVG-20010904/DTD/svg10.dtd">
<svg version="1.0" xmlns="http://www.w3.org/2000/svg"
 width="512.000000pt" height="512.000000pt" viewBox="0 0 512.000000 512.000000"
 preserveAspectRatio="xMidYMid meet">

<g transform="translate(0.000000,512.000000) scale(0.100000,-0.100000)"
fill="#000000" stroke="none">
<path d="M3070 4241 c-821 -373 -1390 -863 -1779 -1532 -33 -58 -61 -116 -61
-130 0 -51 206 -359 376 -564 350 -419 809 -777 1400 -1093 169 -91 219 -107
231 -76 3 8 -20 97 -50 197 -166 537 -239 941 -254 1397 -15 488 79 1093 259
1657 69 219 62 228 -122 144z"/>
</g>
</svg>
