<?xml version="1.0" standalone="no"?>
<!DOCTYPE svg PUBLIC "-//W3C//DTD SVG 20010904//EN"
 "http://www.w3.org/TR/2001/REC-SVG-20010904/DTD/svg10.dtd">
<svg version="1.0" xmlns="http://www.w3.org/2000/svg"
 width="220.000000pt" height="229.000000pt" viewBox="0 0 220.000000 229.000000"
 preserveAspectRatio="xMidYMid meet">

<g transform="translate(0.000000,229.000000) scale(0.100000,-0.100000)"
fill="#000000" stroke="none">
<path d="M903 2165 c-323 -58 -611 -284 -755 -591 -100 -214 -121 -472 -57
-706 27 -97 106 -258 167 -338 71 -95 207 -218 301 -274 95 -57 225 -108 333
-130 98 -20 289 -21 402 -1 332 58 609 273 756 587 225 481 43 1057 -419 1328
-207 120 -487 169 -728 125z m440 -150 c316 -92 548 -324 637 -637 30 -102 37
-287 17 -394 -54 -287 -258 -546 -523 -664 -129 -58 -191 -70 -374 -70 -178 0
-213 6 -345 59 -113 46 -188 94 -279 181 -180 172 -269 362 -283 610 -7 125 7
222 46 337 92 268 315 483 595 573 146 47 358 49 509 5z"/>
<path d="M540 1150 l0 -420 565 0 565 0 0 420 0 420 -565 0 -565 0 0 -420z
m855 349 c-33 -33 -109 -106 -168 -162 -104 -97 -109 -100 -132 -86 -13 8 -91
80 -174 162 l-151 147 342 0 342 0 -59 -61z m113 -339 c0 -85 -3 -167 -7 -183
l-6 -28 -111 78 c-61 43 -124 87 -139 99 l-28 21 139 121 139 122 7 -38 c4
-20 7 -107 6 -192z m-634 98 c60 -51 111 -98 113 -104 4 -11 -231 -204 -257
-212 -11 -4 -14 387 -3 414 7 19 20 10 147 -98z m196 -163 l42 -35 41 35 40
35 46 -33 c25 -18 97 -68 159 -111 l112 -79 0 -78 0 -79 -395 0 -395 0 0 73 0
74 88 69 c117 92 212 164 217 164 2 0 22 -16 45 -35z"/>
</g>
</svg>
