<?xml version="1.0" standalone="no"?>
<!DOCTYPE svg PUBLIC "-//W3C//DTD SVG 20010904//EN"
 "http://www.w3.org/TR/2001/REC-SVG-20010904/DTD/svg10.dtd">
<svg version="1.0" xmlns="http://www.w3.org/2000/svg"
 width="640.000000pt" height="1280.000000pt" viewBox="0 0 640.000000 1280.000000"
 preserveAspectRatio="xMidYMid meet">
<g transform="translate(0.000000,1280.000000) scale(0.100000,-0.100000)"
fill="#000000" stroke="none">
<path d="M5515 12780 c-16 -11 -36 -20 -43 -20 -22 0 -82 -30 -146 -73 -304
-204 -881 -878 -1493 -1742 -81 -114 -194 -283 -375 -560 -92 -142 -135 -208
-228 -354 -70 -110 -336 -547 -365 -601 -14 -25 -30 -52 -35 -60 -35 -54 -340
-596 -340 -604 0 -2 -17 -35 -39 -73 -101 -180 -471 -916 -471 -938 0 -1 -20
-45 -44 -96 -24 -52 -67 -148 -96 -214 -28 -66 -60 -138 -70 -160 -10 -22 -55
-134 -100 -250 -45 -115 -88 -226 -96 -245 -20 -51 -115 -324 -167 -480 -89
-262 -209 -718 -272 -1025 -9 -44 -20 -98 -25 -120 -12 -55 -27 -142 -44 -250
-13 -83 -19 -127 -46 -315 -5 -36 -12 -101 -15 -145 -9 -116 -26 -239 -35
-249 -5 -4 -50 35 -101 88 -91 96 -201 188 -310 259 -92 61 -100 50 -35 -44
227 -326 420 -768 443 -1015 5 -58 4 -63 -18 -75 -54 -30 -238 -11 -443 45
-32 9 -62 14 -65 10 -14 -14 181 -147 284 -194 112 -51 120 -55 120 -70 0 -10
-15 -17 -45 -21 -104 -15 -237 -76 -392 -178 -58 -38 -109 -74 -112 -80 -11
-18 34 -13 94 10 213 82 551 122 616 74 16 -11 15 -18 -9 -81 -23 -62 -58
-167 -257 -774 -53 -162 -84 -259 -174 -545 -68 -214 -200 -646 -209 -680 -3
-11 -17 -58 -32 -105 -15 -47 -31 -98 -35 -115 -4 -16 -38 -129 -75 -250 -37
-121 -70 -233 -75 -250 -4 -16 -17 -64 -29 -105 -36 -131 -24 -141 61 -52 49
51 59 69 82 147 15 50 31 104 37 120 29 95 93 309 129 430 23 77 50 167 61
200 10 33 23 74 28 90 95 308 143 460 195 620 18 55 56 174 86 265 29 91 63
194 75 230 13 36 35 103 50 150 14 47 30 94 35 105 4 11 33 97 64 190 30 94
90 269 132 390 41 121 91 265 109 320 97 286 394 1109 520 1440 15 39 39 104
55 145 48 129 98 260 145 380 7 19 33 87 58 150 24 63 74 189 110 280 35 91
88 224 116 295 28 72 56 139 61 150 5 11 28 65 50 120 23 55 64 153 91 217 27
65 71 171 98 235 27 65 58 138 69 163 11 25 62 142 113 260 50 118 105 243
120 278 16 34 29 64 29 67 0 2 18 41 39 87 21 46 73 157 114 248 149 327 208
452 327 696 67 137 149 305 181 374 33 69 74 152 90 185 17 33 51 101 76 150
44 87 282 528 329 610 13 22 38 67 55 100 17 33 47 84 65 113 19 29 34 55 34
57 0 3 11 22 24 43 13 20 81 134 152 252 70 118 170 280 222 360 52 80 111
170 131 200 103 158 312 448 456 634 22 29 60 78 84 109 24 31 50 57 58 57 20
0 8 -20 -107 -180 -82 -115 -270 -394 -386 -575 -105 -164 -524 -876 -524
-890 0 -2 -42 -79 -93 -172 -178 -319 -537 -1022 -610 -1193 -25 -58 -80 -177
-122 -265 -81 -169 -275 -591 -275 -598 0 -3 -20 -47 -44 -98 -56 -121 -126
-278 -126 -283 0 -3 -13 -33 -29 -68 -37 -79 -153 -352 -277 -653 -52 -126
-99 -239 -105 -250 -92 -201 -563 -1415 -716 -1845 -18 -52 -37 -104 -42 -115
-5 -11 -24 -60 -41 -110 -18 -49 -55 -153 -82 -230 -104 -293 -171 -481 -183
-520 -7 -22 -41 -119 -75 -215 -34 -96 -66 -188 -70 -205 -5 -16 -33 -105 -64
-197 -31 -92 -56 -173 -56 -181 0 -8 17 -26 37 -39 65 -44 146 -130 208 -222
l60 -88 3 35 c7 76 -66 230 -159 336 -68 76 -66 77 196 86 168 6 219 11 385
42 213 39 418 121 585 233 99 66 255 221 318 316 68 103 62 114 -26 56 -111
-72 -195 -96 -341 -97 -71 0 -121 4 -123 10 -1 6 48 36 110 67 381 193 595
389 798 729 91 151 89 174 -6 93 -199 -171 -440 -291 -675 -338 -171 -33 -277
-39 -430 -25 -116 11 -145 17 -145 29 0 15 22 24 145 56 216 57 519 199 740
348 172 115 401 309 516 436 206 229 442 590 607 930 84 173 158 342 242 555
84 214 188 523 181 541 -4 11 -16 10 -58 -8 -79 -32 -256 -85 -312 -93 -72
-11 -57 11 45 65 139 75 234 146 347 258 118 117 194 214 284 361 54 88 70
131 50 131 -5 0 -57 -25 -116 -56 -110 -58 -227 -102 -329 -124 -96 -22 -87
10 17 60 180 86 396 270 522 445 82 115 206 376 297 625 57 157 93 287 83 297
-4 4 -33 -7 -64 -24 -78 -43 -184 -84 -328 -127 -198 -59 -246 -43 -99 33 293
149 454 314 687 701 328 546 568 1069 672 1465 111 423 115 867 9 1170 -53
152 -103 233 -213 349 -116 122 -253 216 -316 216 -12 0 -33 9 -47 20 -33 27
-102 27 -142 0z"/>
</g>
</svg>
